<svg width="70" height="35" viewBox="0 0 70 35" fill="none" xmlns="http://www.w3.org/2000/svg">
<g id="Group 61662">
<path id="Path 3048" d="M70 0.00246566C69.9684 0.00246566 69.937 0 69.9052 0C69.8793 0 69.8538 0.00174651 69.8279 0.00195198C69.8537 0.00195198 69.8793 0 69.9052 0C69.9369 0 69.9683 0.00195198 70 0.00246566Z" fill="white"/>
<g id="Group 61666">
<path id="Path 3056" d="M0.915415 27.9482C0.74511 27.9481 0.578196 27.9005 0.433427 27.8108C0.288658 27.7211 0.171769 27.5929 0.0958942 27.4404C0.020019 27.2879 -0.0118367 27.1173 0.00390624 26.9477C0.0196492 26.7782 0.082367 26.6163 0.185013 26.4804L10.3762 12.9789C10.5244 12.7903 10.7406 12.6674 10.9783 12.6365C11.2161 12.6057 11.4566 12.6693 11.6479 12.8138C11.8393 12.9583 11.9664 13.1721 12.0018 13.4092C12.0372 13.6464 11.9782 13.888 11.8374 14.0821L1.64694 27.5839C1.56166 27.6972 1.45117 27.7891 1.32421 27.8524C1.19726 27.9156 1.05724 27.9484 0.915415 27.9482Z" fill="#C2D152"/>
<path id="Path 3057" d="M11.6437 27.9481C11.5019 27.9483 11.362 27.9155 11.235 27.8523C11.1081 27.7891 10.9976 27.6972 10.9123 27.5839L0.728404 14.0911C0.654047 13.9959 0.599259 13.8869 0.567196 13.7705C0.535133 13.654 0.526428 13.5324 0.541584 13.4125C0.556739 13.2927 0.595455 13.177 0.655501 13.0722C0.715547 12.9674 0.795737 12.8756 0.89145 12.8019C0.987164 12.7282 1.09651 12.6742 1.21319 12.643C1.32987 12.6117 1.45157 12.6039 1.57129 12.6199C1.69101 12.6359 1.80638 12.6754 1.91076 12.7362C2.01513 12.797 2.10644 12.8779 2.17944 12.9741L2.18999 12.988L12.3739 26.4811C12.4765 26.6169 12.5391 26.7787 12.5548 26.9482C12.5705 27.1177 12.5387 27.2882 12.4629 27.4406C12.387 27.593 12.2702 27.7212 12.1256 27.8109C11.9809 27.9006 11.8141 27.9482 11.6439 27.9484" fill="#033A84"/>
<path id="Path 3050" d="M35.4077 24.5706C35.1651 24.5706 34.9323 24.4742 34.7608 24.3026C34.5892 24.131 34.4928 23.8983 34.4928 23.6557V19.9725C34.4928 19.7299 34.5892 19.4972 34.7608 19.3256C34.9323 19.154 35.1651 19.0576 35.4077 19.0576C35.6503 19.0576 35.8831 19.154 36.0546 19.3256C36.2262 19.4972 36.3226 19.7299 36.3226 19.9725V23.6557C36.3226 23.7758 36.299 23.8948 36.253 24.0058C36.207 24.1168 36.1396 24.2177 36.0547 24.3026C35.9697 24.3876 35.8688 24.455 35.7578 24.5009C35.6468 24.5469 35.5279 24.5706 35.4077 24.5706Z" fill="#C2D152"/>
<path id="Path 3051" d="M62.6555 28.1001C62.5354 28.1001 62.4164 28.0764 62.3054 28.0304C62.1944 27.9845 62.0935 27.9171 62.0086 27.8321C61.9236 27.7472 61.8562 27.6463 61.8102 27.5353C61.7643 27.4243 61.7406 27.3053 61.7406 27.1852V12.3065C61.7406 12.0639 61.837 11.8311 62.0086 11.6596C62.1802 11.488 62.4129 11.3916 62.6555 11.3916C62.8982 11.3916 63.1309 11.488 63.3025 11.6596C63.474 11.8311 63.5704 12.0639 63.5704 12.3065V27.1852C63.5704 27.4278 63.474 27.6605 63.3025 27.8321C63.1309 28.0037 62.8982 28.1001 62.6555 28.1001Z" fill="#033A84"/>
<path id="Path 3052" d="M28.6199 27.9476C27.7416 27.9476 26.8831 27.6872 26.1528 27.1992C25.4226 26.7113 24.8534 26.0178 24.5173 25.2064C24.1812 24.395 24.0933 23.5021 24.2646 22.6408C24.4359 21.7794 24.8588 20.9881 25.4799 20.3671C26.1009 19.7461 26.8921 19.3231 27.7535 19.1518C28.6148 18.9804 29.5077 19.0683 30.3191 19.4044C31.1305 19.7405 31.8241 20.3096 32.312 21.0398C32.8 21.77 33.0605 22.6286 33.0605 23.5068C33.0605 24.6846 32.5926 25.814 31.7599 26.6468C30.9271 27.4796 29.7976 27.9474 28.6199 27.9474M28.6199 20.8973C28.1038 20.8974 27.5993 21.0504 27.1702 21.3371C26.7411 21.6239 26.4067 22.0314 26.2092 22.5082C26.0117 22.985 25.96 23.5097 26.0607 24.0158C26.1614 24.522 26.4099 24.9869 26.7748 25.3519C27.1398 25.7168 27.6047 25.9653 28.1109 26.066C28.617 26.1667 29.1417 26.115 29.6185 25.9175C30.0953 25.72 30.5028 25.3856 30.7896 24.9565C31.0763 24.5274 31.2294 24.0229 31.2294 23.5068C31.2294 22.8148 30.9545 22.1511 30.4651 21.6617C29.9757 21.1723 29.312 20.8974 28.62 20.8974" fill="#033A84"/>
<path id="Path 3053" d="M14.7988 30.2355C14.556 30.2355 14.3231 30.139 14.1514 29.9673C13.9797 29.7956 13.8833 29.5628 13.8832 29.3199V19.9824C13.8808 19.7396 13.9749 19.5057 14.1449 19.3323C14.3149 19.1589 14.5468 19.0601 14.7896 19.0577C15.0325 19.0552 15.2663 19.1494 15.4397 19.3194C15.6132 19.4893 15.712 19.7213 15.7144 19.9641C15.7144 19.9703 15.7144 19.9764 15.7144 19.9824V29.3199C15.7144 29.5628 15.6179 29.7956 15.4462 29.9673C15.2745 30.139 15.0416 30.2355 14.7988 30.2355Z" fill="#C2D152"/>
<path id="Path 3054" d="M18.3238 19.0669C17.1462 19.067 16.0168 19.5349 15.1841 20.3676C14.3514 21.2003 13.8836 22.3297 13.8835 23.5073C13.8835 23.5737 13.8857 23.6395 13.8886 23.7051C13.8859 23.7324 13.8839 23.7598 13.8835 23.7878V33.1253C13.8835 33.3682 13.98 33.6011 14.1517 33.7728C14.3234 33.9445 14.5563 34.0409 14.7991 34.0409C15.042 34.0409 15.2748 33.9445 15.4466 33.7728C15.6183 33.6011 15.7147 33.3682 15.7147 33.1253V27.0992C16.2817 27.511 16.938 27.7829 17.6301 27.8924C18.3222 28.002 19.0305 27.9463 19.6969 27.7297C20.3633 27.5131 20.969 27.1419 21.4645 26.6463C21.96 26.1508 22.3311 25.5451 22.5476 24.8786C22.7641 24.2121 22.8198 23.5039 22.7101 22.8118C22.6005 22.1197 22.3285 21.4634 21.9166 20.8965C21.5047 20.3296 20.9645 19.8683 20.3401 19.5502C19.7157 19.2321 19.0249 19.0663 18.3241 19.0664M18.3241 26.1165C17.6321 26.1165 16.9683 25.8416 16.479 25.3522C15.9896 24.8628 15.7147 24.1991 15.7147 23.507C15.7147 22.815 15.9896 22.1513 16.479 21.6619C16.9683 21.1725 17.6321 20.8976 18.3241 20.8976C19.0162 20.8976 19.6799 21.1725 20.1693 21.6619C20.6586 22.1512 20.9335 22.8149 20.9335 23.507C20.9335 24.1991 20.6586 24.8628 20.1693 25.3521C19.6799 25.8415 19.0162 26.1164 18.3241 26.1164" fill="#033A84"/>
<path id="Path 3058" d="M58.9262 28.1002C58.7514 28.1003 58.5802 28.0503 58.4329 27.9563C58.2855 27.8622 58.1682 27.7279 58.0948 27.5692L51.2027 12.6925C51.1506 12.5832 51.1208 12.4646 51.1149 12.3437C51.1089 12.2228 51.127 12.1019 51.1681 11.9881C51.2092 11.8742 51.2725 11.7696 51.3543 11.6803C51.4361 11.5911 51.5347 11.5189 51.6446 11.4681C51.7544 11.4172 51.8733 11.3886 51.9943 11.384C52.1152 11.3793 52.2359 11.3987 52.3493 11.441C52.4628 11.4833 52.5667 11.5477 52.655 11.6305C52.7434 11.7132 52.8145 11.8126 52.8642 11.923L59.7562 26.7991C59.8207 26.9385 59.8491 27.092 59.8387 27.2453C59.8284 27.3986 59.7796 27.5469 59.697 27.6764C59.6143 27.806 59.5004 27.9126 59.3657 27.9866C59.231 28.0605 59.0798 28.0994 58.9262 28.0997" fill="#C2D152"/>
<path id="Path 3059" d="M45.1414 28.0998C44.9877 28.0996 44.8366 28.0607 44.7019 27.9868C44.5672 27.9128 44.4532 27.8062 44.3706 27.6766C44.2879 27.5471 44.2391 27.3988 44.2288 27.2455C44.2185 27.0922 44.2469 26.9387 44.3114 26.7992L51.2034 11.9224C51.307 11.7047 51.4924 11.5366 51.7192 11.4548C51.946 11.3729 52.196 11.3838 52.4148 11.4852C52.6336 11.5865 52.8036 11.7701 52.8879 11.996C52.9722 12.2219 52.9639 12.472 52.8649 12.6919L45.9726 27.5688C45.8992 27.7274 45.7819 27.8617 45.6346 27.9558C45.4872 28.0499 45.316 28.0998 45.1412 28.0997" fill="#033A84"/>
<path id="Path 3060" d="M34.4928 23.9599H34.4933V23.9375C34.4933 23.9449 34.4928 23.9524 34.4928 23.9599Z" fill="white"/>
<path id="Path 3062" d="M32.3907 25.8091C32.4033 25.7889 32.4167 25.7695 32.4289 25.7491C32.4388 25.7324 32.4474 25.7154 32.4573 25.6987C32.4476 25.7153 32.4388 25.7324 32.4289 25.7491C32.4166 25.7695 32.4029 25.7888 32.3907 25.8091Z" fill="white"/>
<path id="Path 3063" d="M43.3648 23.9593H43.3653C43.3653 21.5361 41.376 19.5645 38.9307 19.5645H38.9286C36.4832 19.5645 34.494 21.5357 34.494 23.9593H34.4944C34.4944 23.9686 34.4929 23.9776 34.4928 23.9869C34.4928 23.993 34.4928 23.9991 34.4928 24.0051V27.0342C34.494 27.2782 34.5921 27.5118 34.7655 27.6835C34.9389 27.8552 35.1734 27.951 35.4175 27.9498C35.5383 27.9504 35.6581 27.9273 35.7701 27.8816C35.882 27.8359 35.9838 27.7687 36.0697 27.6836C36.1556 27.5986 36.2239 27.4975 36.2707 27.3861C36.3176 27.2746 36.342 27.1551 36.3426 27.0342V24.0051C36.3426 23.9897 36.3413 23.9746 36.3407 23.9592C36.3376 23.6197 36.4014 23.2828 36.5285 22.9679C36.6556 22.653 36.8435 22.3662 37.0814 22.1239C37.3193 21.8816 37.6027 21.6885 37.9152 21.5557C38.2277 21.4229 38.5634 21.353 38.903 21.3499H38.9573C39.643 21.3562 40.2983 21.6346 40.7788 22.1239C41.2593 22.6133 41.5257 23.2734 41.5195 23.9592C41.5188 23.9745 41.5174 23.9896 41.5175 24.0051V27.0341C41.5181 27.155 41.5425 27.2746 41.5893 27.386C41.6361 27.4974 41.7045 27.5985 41.7904 27.6835C41.8763 27.7686 41.9781 27.8358 42.09 27.8815C42.2019 27.9272 42.3217 27.9504 42.4426 27.9497C42.6866 27.9509 42.9211 27.8551 43.0945 27.6834C43.2679 27.5117 43.366 27.2782 43.3672 27.0341V24.0051C43.3672 23.999 43.3672 23.9929 43.3672 23.9869C43.3672 23.9776 43.3659 23.9686 43.3656 23.9593" fill="#033A84"/>
<path id="Ellipse 20" d="M66.2306 28.0998C66.9189 28.0998 67.4768 27.5419 67.4768 26.8536C67.4768 26.1654 66.9189 25.6074 66.2306 25.6074C65.5424 25.6074 64.9844 26.1654 64.9844 26.8536C64.9844 27.5419 65.5424 28.0998 66.2306 28.0998Z" fill="#C2D152"/>
</g>
</g>
</svg>
